<?xml version="1.0" encoding="utf-8"?>
<!-- Generator: Adobe Illustrator 20.1.0, SVG Export Plug-In . SVG Version: 6.00 Build 0)  -->
<svg version="1.1" id="Layer_3" xmlns="http://www.w3.org/2000/svg" xmlns:xlink="http://www.w3.org/1999/xlink" x="0px" y="0px"
	 viewBox="0 0 1982.8 89.1" style="enable-background:new 0 0 1982.8 89.1;" xml:space="preserve">
<style type="text/css">
	.st0{fill:#CCCCCC;}
	.st1{fill:#999999;}
	.st2{fill:#164051;}
	.st3{fill:#808080;}
	.st4{fill:#103754;}
</style>
<g>
	<path class="st0" d="M53.6,18.6V1c-0.1,0-0.2,0-0.3,0h-2.7c-4.4,0-8,3.6-8,8v20.5L53.6,18.6z"/>
	<path class="st0" d="M61.4,36.8l-8.1-18.7L42.7,29.3c0.2,1.7-0.4,7.7-0.4,7.7L61.4,36.8z"/>
	<path class="st0" d="M98.4,43.1H46.7c-5.3,0-9.5,4.3-9.5,9.5v15.5c0,5.3,4.3,9.5,9.5,9.5h51.7V43.1z"/>
	<g>
		<g>
			<rect x="74.8" y="40.5" class="st1" width="23.9" height="46.8"/>
			<rect x="79.3" y="38.8" class="st2" width="1903.5" height="50.3"/>
			<rect x="79.2" y="38.8" class="st2" width="3.8" height="50.3"/>
		</g>
		<rect x="74.8" y="64" class="st3" width="4.5" height="23.4"/>
		<circle class="st4" cx="90.4" cy="81.3" r="2.4"/>
	</g>
	<path class="st0" d="M0.1,51.2c0,3,2.4,5.4,5.4,5.4h8.6v2.6h-3.7c-3,0-5.4,2.4-5.4,5.4S7.4,70,10.4,70h3.7c0,1,0.2,1.8,0.4,2.7
		c-2.3,0.6-3.9,2.7-3.9,5.1c0,3,2.4,5.4,5.4,5.4h12h13.4h9.4c7.7,0,14-6.3,14-14V46.5c0-7.7-6.3-14-14-14H28.1c-0.2,0-0.4,0-0.6,0
		H5.4c-3,0-5.4,2.4-5.4,5.4s2.4,5.4,5.4,5.4h9.1c-0.1,0.8-0.3,1.7-0.3,2.6H5.6C2.6,45.9,0.2,48.3,0.1,51.2z"/>
</g>
</svg>
