<?xml version="1.0" encoding="utf-8"?>
<!-- Generator: Adobe Illustrator 19.2.1, SVG Export Plug-In . SVG Version: 6.00 Build 0)  -->
<svg version="1.1" id="Layer_3" xmlns="http://www.w3.org/2000/svg" xmlns:xlink="http://www.w3.org/1999/xlink" x="0px" y="0px"
	 viewBox="0 0 1982.8 89.1" style="enable-background:new 0 0 1982.8 89.1;" xml:space="preserve">
<style type="text/css">
	.st0{fill:#CCCCCC;}
	.st1{fill:#999999;}
	.st2{fill:#164051;}
	.st3{fill:#808080;}
	.st4{fill:#103754;}
</style>
<g>
	<path class="st0" d="M1940.2,29.5V9c0-4.4-3.6-8-8-8h-2.7c-0.1,0-0.2,0-0.3,0v17.6L1940.2,29.5z"/>
	<path class="st0" d="M1940.5,37c0,0-0.6-6-0.4-7.7l-10.6-11.2l-8.1,18.7L1940.5,37z"/>
	<path class="st0" d="M1884.4,77.6h51.7c5.2,0,9.5-4.2,9.5-9.5V52.6c0-5.2-4.2-9.5-9.5-9.5h-51.7V77.6z"/>
	<g>
		<g>
			<rect x="1884.1" y="40.5" class="st1" width="23.9" height="46.8"/>
			<rect y="38.8" class="st2" width="1903.5" height="50.3"/>
			<rect x="1899.8" y="38.8" class="st2" width="3.8" height="50.3"/>
		</g>
		<rect x="1903.5" y="64" class="st3" width="4.5" height="23.4"/>
		<circle class="st4" cx="1892.4" cy="81.3" r="2.4"/>
	</g>
	<path class="st0" d="M1977.2,45.9h-8.6c0-0.9-0.2-1.8-0.3-2.6h9.1c3,0,5.4-2.4,5.4-5.4s-2.4-5.4-5.4-5.4h-22.1c-0.2,0-0.4,0-0.6,0
		H1932c-7.7,0-14,6.3-14,14v22.7c0,7.7,6.3,14,14,14h9.4h13.4h12c3,0,5.4-2.4,5.4-5.4c0-2.4-1.6-4.5-3.9-5.1
		c0.2-0.9,0.4-1.7,0.4-2.7h3.7c3,0,5.4-2.4,5.4-5.4s-2.4-5.4-5.4-5.4h-3.7v-2.6h8.6c3,0,5.4-2.4,5.4-5.4
		C1982.6,48.3,1980.2,45.9,1977.2,45.9z"/>
</g>
</svg>
