<svg id="_ÎÓÈ_1" data-name="—ÎÓÈ 1" xmlns="http://www.w3.org/2000/svg" viewBox="0 0 1283.2 84.9"><defs><style>.cls-1{fill:#e6e6e6;}.cls-2{fill:#ccc;}.cls-3{fill:#fff;}.cls-4{fill:#174051;}.cls-5{fill:#df1e36;}</style></defs><title>finger</title><path class="cls-1" d="M1205.3,17.4a8.71,8.71,0,0,1-8.7-8.7h0a8.71,8.71,0,0,1,8.7-8.7h69.2a8.71,8.71,0,0,1,8.7,8.7h0a8.71,8.71,0,0,1-8.7,8.7Z"/><path class="cls-1" d="M1205.3,38.5a8.71,8.71,0,0,1-8.7-8.7h0a8.71,8.71,0,0,1,8.7-8.7h13.5a8.71,8.71,0,0,1,8.7,8.7h0a8.71,8.71,0,0,1-8.7,8.7Z"/><path class="cls-1" d="M1205.3,59.5a8.71,8.71,0,0,1-8.7-8.7h0a8.71,8.71,0,0,1,8.7-8.7h13.5a8.71,8.71,0,0,1,8.7,8.7h0a8.71,8.71,0,0,1-8.7,8.7Z"/><path class="cls-1" d="M1205.3,80.6a8.71,8.71,0,0,1-8.7-8.7h0a8.71,8.71,0,0,1,8.7-8.7h13.5a8.71,8.71,0,0,1,8.7,8.7h0a8.71,8.71,0,0,1-8.7,8.7Z"/><path class="cls-1" d="M1219.7,66.5V14.2A14.19,14.19,0,0,0,1205.5,0h-41.6l-28,19V66.4a14.19,14.19,0,0,0,14.2,14.2h55.5A14.15,14.15,0,0,0,1219.7,66.5Z"/><path class="cls-2" d="M1270.7,15h5.5a3.9,3.9,0,0,0,3.9-3.9V6.4a3.9,3.9,0,0,0-3.9-3.9h-5.5Z"/><path class="cls-1" d="M1106.8,17.6c-1.8,11-6.9,18.4-6.9,30,0,6.6.5,17.2,1.1,23.7h38.9V17.7h-33.1Z"/><rect class="cls-3" x="1094.3" y="14.7" width="20.8" height="62.9"/><rect class="cls-4" y="14.7" width="1096.8" height="70.2"/><circle class="cls-5" cx="1078.4" cy="69.7" r="7.8"/></svg>